<?xml version="1.0" encoding="UTF-8"?>
<svg id="Capa_1" data-name="Capa 1" xmlns="http://www.w3.org/2000/svg" viewBox="0 0 717.67 453.96">
  <defs>
    <style>
      .cls-1 {
        fill: #f2f2f2;
      }

      .cls-2 {
        fill: #e6e6e6;
      }

      .cls-3 {
        fill: #fff;
      }

      .cls-4 {
        fill: #f08bad;
      }

      .cls-5 {
        fill: #f08bab;
      }

      .cls-6 {
        fill: #ffb6b6;
      }

      .cls-7 {
        fill: #ccc;
      }

      .cls-8 {
        fill: #c9bdbd;
      }

      .cls-9 {
        fill: #3f3d56;
      }

      .cls-10 {
        fill: #2f2e41;
      }
    </style>
  </defs>
  <path class="cls-10" d="M271.99,71.48c-1.01,1.31-2.76,1.82-4.31,1.26-.23-.07-.46-.15-.68-.25,.25-2.67,.13-5.36-.37-7.99-.19,2.26-.75,4.48-1.64,6.57-.73-.73-1.32-1.58-1.76-2.51-.81-1.93-1.35-3.97-1.6-6.05-1.2-7.09-2.39-14.46-.43-21.39,2.88-10.12,11.96-17.39,15.75-27.21l1.87-1.68c3.2,5.45,3.34,12.21,2.04,18.39-1.3,6.19-3.91,11.99-5.98,17.96s-3.61,12.31-2.65,18.56c.22,1.47,.56,3.09-.23,4.34Z"/>
  <polygon class="cls-6" points="230.47 157.1 218.29 212.78 271.47 230.1 263.65 157.1 230.47 157.1"/>
  <path class="cls-8" d="M605.7,452.6h24.1v-110.47c-.07-59.36-48.17-107.46-107.53-107.53h-223.94c-59.36,.07-107.46,48.17-107.53,107.53v110.47h24.1v-75.47c.07-59.91,48.62-108.46,108.53-108.53h173.75c59.91,.07,108.46,48.62,108.53,108.53v75.47Z"/>
  <path class="cls-9" d="M485.85,153.13h-51.01c-1.5,0-2.72,1.22-2.72,2.72v80.57h56.45v-80.57c0-1.5-1.22-2.72-2.72-2.72h0Zm-25.33,45.78c-3.32-.02-6.01-2.7-6.02-6.02v-9.29c0-3.33,2.7-6.02,6.02-6.02s6.02,2.7,6.02,6.02h0v9.29c-.02,3.32-2.7,6.01-6.02,6.02Z"/>
  <path class="cls-9" d="M570.31,27.39h-218.03c-3.9,0-7.06,3.17-7.07,7.07V181.58c0,3.9,3.17,7.06,7.07,7.07h218.03c3.9,0,7.06-3.17,7.07-7.07V34.45c0-3.9-3.17-7.06-7.07-7.07Z"/>
  <path class="cls-3" d="M568.49,32.49h-214.39c-2.09,0-3.78,1.7-3.78,3.79V179.76c0,2.09,1.69,3.78,3.78,3.78h214.39c2.09,0,3.78-1.69,3.78-3.78V36.28c0-2.09-1.69-3.78-3.78-3.79Z"/>
  <path class="cls-9" d="M431.95,233.85v7.77c0,.84,.68,1.52,1.52,1.52h53.76c.84,0,1.52-.68,1.52-1.52v-7.77h-56.8Z"/>
  <path class="cls-9" d="M526.73,245.85h-127.55c-1.3,0-2.35-1.05-2.35-2.35,0-.16,.02-.32,.05-.48l1.98-9.4c.23-1.08,1.19-1.86,2.3-1.86h123.59c1.11,0,2.06,.78,2.3,1.86l1.98,9.4c.27,1.27-.54,2.51-1.81,2.78-.16,.03-.32,.05-.48,.05Z"/>
  <rect class="cls-2" x="402.07" y="233.45" width="3.93" height="2.36" rx=".49" ry=".49"/>
  <rect class="cls-2" x="409.92" y="233.45" width="3.93" height="2.36" rx=".49" ry=".49"/>
  <rect class="cls-2" x="417.78" y="233.45" width="3.93" height="2.36" rx=".49" ry=".49"/>
  <rect class="cls-2" x="425.64" y="233.45" width="3.93" height="2.36" rx=".49" ry=".49"/>
  <rect class="cls-2" x="433.49" y="233.45" width="3.93" height="2.36" rx=".49" ry=".49"/>
  <rect class="cls-2" x="441.35" y="233.45" width="3.93" height="2.36" rx=".49" ry=".49"/>
  <rect class="cls-2" x="449.21" y="233.45" width="3.93" height="2.36" rx=".49" ry=".49"/>
  <rect class="cls-2" x="457.06" y="233.45" width="3.93" height="2.36" rx=".49" ry=".49"/>
  <rect class="cls-2" x="464.92" y="233.45" width="3.93" height="2.36" rx=".49" ry=".49"/>
  <rect class="cls-2" x="472.78" y="233.45" width="3.93" height="2.36" rx=".49" ry=".49"/>
  <rect class="cls-2" x="480.63" y="233.45" width="3.93" height="2.36" rx=".49" ry=".49"/>
  <rect class="cls-2" x="488.49" y="233.45" width="3.93" height="2.36" rx=".49" ry=".49"/>
  <rect class="cls-2" x="496.35" y="233.45" width="3.93" height="2.36" rx=".49" ry=".49"/>
  <rect class="cls-2" x="504.2" y="233.45" width="3.93" height="2.36" rx=".49" ry=".49"/>
  <rect class="cls-2" x="512.06" y="233.45" width="3.93" height="2.36" rx=".49" ry=".49"/>
  <rect class="cls-2" x="519.92" y="233.45" width="3.93" height="2.36" rx=".49" ry=".49"/>
  <rect class="cls-2" x="401.97" y="237.38" width="3.93" height="2.36" rx=".49" ry=".49"/>
  <rect class="cls-2" x="409.83" y="237.38" width="3.93" height="2.36" rx=".49" ry=".49"/>
  <rect class="cls-2" x="417.69" y="237.38" width="3.93" height="2.36" rx=".49" ry=".49"/>
  <rect class="cls-2" x="425.54" y="237.38" width="3.93" height="2.36" rx=".49" ry=".49"/>
  <rect class="cls-2" x="433.4" y="237.38" width="3.93" height="2.36" rx=".49" ry=".49"/>
  <rect class="cls-2" x="441.26" y="237.38" width="3.93" height="2.36" rx=".49" ry=".49"/>
  <rect class="cls-2" x="449.11" y="237.38" width="3.93" height="2.36" rx=".49" ry=".49"/>
  <rect class="cls-2" x="456.97" y="237.38" width="3.93" height="2.36" rx=".49" ry=".49"/>
  <rect class="cls-2" x="464.83" y="237.38" width="3.93" height="2.36" rx=".49" ry=".49"/>
  <rect class="cls-2" x="472.68" y="237.38" width="3.93" height="2.36" rx=".49" ry=".49"/>
  <rect class="cls-2" x="480.54" y="237.38" width="3.93" height="2.36" rx=".49" ry=".49"/>
  <rect class="cls-2" x="488.4" y="237.38" width="3.93" height="2.36" rx=".49" ry=".49"/>
  <rect class="cls-2" x="496.25" y="237.38" width="3.93" height="2.36" rx=".49" ry=".49"/>
  <rect class="cls-2" x="504.11" y="237.38" width="3.93" height="2.36" rx=".49" ry=".49"/>
  <rect class="cls-2" x="511.97" y="237.38" width="3.93" height="2.36" rx=".49" ry=".49"/>
  <rect class="cls-2" x="519.82" y="237.38" width="3.93" height="2.36" rx=".49" ry=".49"/>
  <rect class="cls-2" x="439.69" y="242.09" width="31.43" height="2.36" rx=".49" ry=".49"/>
  <path class="cls-1" d="M536.52,68.51v75.52c0,10.53-8.54,19.07-19.07,19.07h-94.52c-7.6,0-14.48-4.51-17.51-11.49-.5-1.13-.87-2.3-1.13-3.51,2.01,.78,4.15,1.17,6.3,1.17h94.52c9.7-.01,17.57-7.88,17.58-17.58V56.17c0-2.15-.39-4.29-1.17-6.3,1.21,.26,2.38,.63,3.51,1.13,6.98,3.03,11.49,9.91,11.49,17.51Z"/>
  <polygon class="cls-6" points="183.9 368.97 174.52 374.78 146.9 340.83 160.74 332.26 183.9 368.97"/>
  <path class="cls-10" d="M191.99,381.1l-7.54,3.37-4.52-6.52-.27,8.66-20,8.93c-2.48,1.11-5.39,0-6.5-2.49-.66-1.48-.55-3.18,.29-4.57l11.05-18.16-3.21-7.2,17.25-6.5,13.47,24.48Z"/>
  <path class="cls-10" d="M157.63,362.44l15.83-15.34c-11.76-29.03-12.7-47.02-29.01-82.13,38.69,7.91,66.36,7.43,98.36,.34,10.83-2.36,38.79-23.96,36.49-35.03-.11-.52-.23-1.03-.38-1.54-3.43-11.71-1.02-29.65-8.45-42.64-13.75-5.19-34.65,12.33-51,23-7.88,5.15-2.11,12.16-8,14l-22.57,7.33-55.37-8.94c-11.2-1.7-21.66,6.01-23.35,17.21,0,.05-.02,.1-.02,.15-.09,.6-.16,1.21-.2,1.81,2.55,14.1,5.2,27.84,8.06,40.87,.92,4.21-.64,12.28,2.84,12.4s2.07,8.46,3.15,12.54c6.65,25.11,10.86,37.27,33.64,55.98Z"/>
  <polygon class="cls-6" points="127.33 429.74 117.56 424.65 133.01 383.71 147.43 391.23 127.33 429.74"/>
  <path class="cls-10" d="M125.7,399.18l15.66,10.78c19.19-27.76,31.66-64.85,40.94-106.36,36.14-15.76,67.76-33.8,89.8-57.99,7.52-8.43,6.99-21.32-1.21-29.1-.39-.36-.78-.71-1.2-1.04-9.54-7.6-30.74-3.23-44.29-9.58l-24.2,33.5,2.78,7.8-8.42,4.1-7.11,3.46-8.14,3.96-26.68,12.99c-10.12,5.06-14.22,17.36-9.16,27.48,.02,.05,.05,.1,.08,.15,.27,.55,.56,1.08,.88,1.6l-9.91,49.36s2.73,8.59-1.56,7.79-1.95,9.73-1.95,9.73l-6.3,31.37Z"/>
  <path class="cls-10" d="M121.41,452.31l-7.32-3.82,2.3-7.59-6.95,5.17-19.42-10.13c-2.41-1.26-3.35-4.23-2.09-6.64,.75-1.43,2.15-2.41,3.76-2.61l21.1-2.62,3.65-6.99,15.8,9.49-10.82,25.75Z"/>
  <path class="cls-6" d="M334.89,237.7l-11.42-27.61-9,5,5.44,28.08c-1.62,5.28,1.36,10.87,6.64,12.49s10.87-1.36,12.49-6.64c1.31-4.28-.38-8.9-4.14-11.33Z"/>
  <path class="cls-6" d="M143.21,19.41l17.38,24.3,7.63-6.91-11.66-26.12c.38-5.51-3.78-10.28-9.29-10.66-5.51-.38-10.28,3.78-10.66,9.29-.31,4.46,2.39,8.58,6.6,10.1h0Z"/>
  <path class="cls-5" d="M221.7,173.42c-11.27,17.49,30.03,55.59,51.77,46.68,3.81-1.56,16.9-6.71,7.95-13.86s1.04,.85,1.27-3.8c.16-3.11-2.25-9.93,.26-9.64s3.95-6.97-1.52-8.82c-3.88-1.39-6.61-4.9-7-9-.52-19.17,5.97-39.18,5.97-39.18l26.5,67.73s-.2,11.72,3.18,8.14,3.13,8.01,3.13,8.01c0,0,5.02,3.51,2.14,5.46s3.11,7.95,3.11,7.95l14-1s-.22-10.4-2.61-12.7-1.22-5.92-1.22-5.92c0,0-4.93-4.58-2.05-9.98s-20.95-101.96-20.95-101.96c-1.95-9.47-9.04-17.05-18.37-19.62l-15.12-4.16-2.68-10.65h-21.29l-3.71,7-34-3s-33.64-30.61-32-33-3.57-7.99-3.57-7.99c0,0-4.45-1.46-1.94-2.24s-2.24-2.58-2.24-2.58c0,0-4.4-1.16-2.32-2.68s-6.92-2.52-6.92-2.52l-11.68,9.53,2.36,4s-1.44,5.45,.44,3.46,2.23,3.78,2.23,3.78c0,0,.96,6.32,6.65,8.23s10,20,10,20l48,40c-7.31,8.39-5.57,17.17,.91,26.14l1.32,38.18Z"/>
  <circle class="cls-6" cx="258.34" cy="36.96" r="23.06"/>
  <path class="cls-10" d="M278.47,30.1c-.59,.17-9.25,1.3-13,2-3.68,.69-4.32-4-7.33-3.12,0-.02,0-.04-.01-.06-.47-2.49-1.26-4.9-2.37-7.17,.4,2.18,.46,4.4,.17,6.6,0,.06,0,.11-.02,.17-.01,.1-.03,.19-.04,.29-3.18-1.4-5.2-.15-7.4,.29-2.46,.49-4.38,1.57-3,10,2.83,17.34,17.55,23.53,15,35-.5,2.27-1.76,5.11-3.34,5.82-.47-2.49-1.26-4.9-2.37-7.17,.4,2.18,.46,4.4,.17,6.6-2.45-2.65-4.22-11.91-12.46-19.25-2.03-1.8-12.2-12.48-13.42-15,.37,2.01,.56,4.06,.54,6.11,0,1.37-.09,2.74-.28,4.1,0,.09-.01,.17-.03,.26-.01,.16-.04,.3-.06,.45-.02,.17-.05,.33-.08,.5-3.33-.48-6.28-1.06-7.67-2.42-6.76-6.58,1.49-19.4,6-31,6.45-16.61,25.18-18.82,27-19,8.02-.81,21.57,.91,26,10,3.1,6.37,1.12,15.1-2,16Z"/>
  <path class="cls-10" d="M229.85,33.85l16.7-25.98c-4-2.32-8.56-3.52-13.19-3.46-4.66,.1-9.07,2.17-12.11,5.71-3.41,4.24-4,10.23-2.72,15.52,.44,1.83,8.85-4.6,6.85-1.6-1.64,2.35-4.33,12.22-5,15-1.08,4.47-4.06,9.06-1.41,12.82,3.14,4.44,8.74,6.65,14.18,6.88s10.79-1.28,15.95-2.99l-19.25-21.9Z"/>
  <path class="cls-4" d="M236.27,32.82c-.55,0-1-.45-1-1,0-.45,.3-.84,.73-.96,.26-.43,.15-2.25,.07-3.72-.33-5.52-.87-14.77,8.11-21.01,.45-.32,1.08-.2,1.39,.25s.2,1.08-.25,1.39h0c-8.05,5.6-7.57,13.82-7.25,19.25,.18,3.11,.32,5.35-1.57,5.78-.07,.02-.15,.02-.22,.02Z"/>
  <path class="cls-7" d="M0,451.95c0,.66,.53,1.19,1.18,1.19H716.48c.66,0,1.19-.53,1.19-1.19s-.53-1.19-1.19-1.19H1.19c-.66,0-1.19,.53-1.19,1.18h0Z"/>
  <path class="cls-5" d="M442.53,94.85h-15.13c-.84,0-1.51-.68-1.51-1.51s.68-1.51,1.51-1.51h15.13c.84,0,1.51,.68,1.51,1.51s-.68,1.51-1.51,1.51Z"/>
  <path class="cls-5" d="M469.77,94.85h-15.13c-.84,0-1.51-.68-1.51-1.51s.68-1.51,1.51-1.51h15.13c.84,0,1.51,.68,1.51,1.51s-.68,1.51-1.51,1.51h0Z"/>
  <path class="cls-5" d="M483.39,106.96h-15.13c-.84,0-1.51-.68-1.51-1.51s.68-1.51,1.51-1.51h15.13c.84,0,1.51,.68,1.51,1.51s-.68,1.51-1.51,1.51Z"/>
  <path class="cls-5" d="M456.24,106.96h-28.83c-.84,0-1.51-.68-1.51-1.51s.68-1.51,1.51-1.51h28.83c.84,0,1.51,.68,1.51,1.51s-.68,1.51-1.51,1.51Z"/>
  <path class="cls-5" d="M510.71,94.85h-28.83c-.84,0-1.51-.68-1.51-1.51s.68-1.51,1.51-1.51h28.83c.84,0,1.51,.68,1.51,1.51s-.68,1.51-1.51,1.51h0Z"/>
  <path class="cls-5" d="M452.89,71.93h-28.83c-.84,0-1.52-.67-1.52-1.51,0-.84,.67-1.52,1.51-1.52h28.85c.84,0,1.51,.68,1.52,1.51,0,.84-.68,1.51-1.51,1.52h0Z"/>
  <path class="cls-5" d="M455.27,80.77c-.75,0-1.36-.61-1.36-1.35,0-.42,.19-.81,.52-1.07l7.38-5.74c1.18-.92,1.4-2.62,.48-3.81-.05-.06-.1-.12-.15-.18l-6.2-6.71c-.51-.55-.48-1.4,.07-1.92,.55-.51,1.4-.48,1.92,.07,0,0,0,0,0,0l9.21,9.96c.51,.55,.47,1.41-.08,1.92-.03,.03-.06,.05-.09,.07l-10.88,8.46c-.24,.18-.53,.29-.83,.29Z"/>
  <path class="cls-5" d="M422.6,80.77c.75,0,1.36-.61,1.36-1.35,0-.42-.19-.81-.52-1.07l-7.38-5.74c-1.18-.92-1.4-2.62-.48-3.81,.05-.06,.1-.12,.15-.18l6.2-6.71c.51-.55,.47-1.41-.08-1.91-.55-.5-1.4-.47-1.91,.08l-9.21,9.96c-.51,.55-.47,1.41,.08,1.92,.03,.03,.06,.05,.09,.07l10.88,8.46c.24,.18,.53,.29,.83,.29Z"/>
  <path class="cls-5" d="M467.8,132.91h-28.83c-.84,0-1.51-.68-1.51-1.51s.68-1.51,1.51-1.51h28.83c.84,0,1.51,.68,1.51,1.51s-.68,1.51-1.51,1.51h0Z"/>
  <path class="cls-5" d="M472.88,140.39c-.75,0-1.36-.61-1.36-1.35,0-.42,.19-.81,.52-1.07l7.38-5.74c1.18-.92,1.4-2.62,.48-3.81-.05-.06-.1-.12-.15-.18l-6.2-6.71c-.51-.55-.47-1.41,.08-1.91,.55-.5,1.4-.47,1.91,.08l9.21,9.96c.51,.55,.47,1.41-.08,1.92-.03,.03-.06,.05-.09,.07l-10.88,8.46c-.24,.18-.53,.29-.83,.29Z"/>
  <path class="cls-5" d="M422.6,140.39c.75,0,1.36-.61,1.36-1.35,0-.42-.19-.81-.52-1.07l-7.38-5.74c-1.18-.92-1.4-2.62-.48-3.81,.05-.06,.1-.12,.15-.18l6.2-6.71c.51-.55,.48-1.4-.07-1.92-.55-.51-1.4-.48-1.92,.07,0,0,0,0,0,0l-9.21,9.96c-.51,.55-.47,1.41,.08,1.92,.03,.03,.06,.05,.09,.07l10.88,8.46c.24,.18,.53,.29,.83,.29Z"/>
  <path class="cls-5" d="M425.17,136.15l6.06-13.87c.34-.76,1.23-1.11,2-.77,.76,.34,1.11,1.22,.78,1.98l-6.06,13.87c-.33,.77-1.22,1.12-1.99,.79s-1.12-1.22-.79-1.99c0,0,0,0,0-.01h0Z"/>
</svg>